<svg width="300" height="300" viewBox="0 0 300 300" fill="none" xmlns="http://www.w3.org/2000/svg">
<path d="M144.284 116.73C146.851 112.376 153.149 112.376 155.716 116.73L177.033 152.879C178.412 155.218 178.213 158.124 176.619 160.24C176.981 158.451 176.603 156.53 175.446 154.97L155.351 127.862C152.692 124.275 147.321 124.285 144.675 127.882L124.732 154.993C123.516 156.646 123.17 158.7 123.649 160.574C121.813 158.438 121.515 155.344 122.968 152.879L144.284 116.73Z" fill="#AD460C"/>
<path d="M144.284 118.54C146.851 114.186 153.149 114.186 155.716 118.54L176.54 153.855C177.806 156.002 177.73 158.588 176.534 160.609C177.03 158.718 176.683 156.638 175.446 154.97L155.351 127.863C152.692 124.276 147.321 124.286 144.675 127.882L124.732 154.993C123.389 156.819 123.107 159.134 123.826 161.154C122.295 159.069 122.077 156.2 123.46 153.855L144.284 118.54Z" fill="#AD460C"/>
<g filter="url(#filter0_d_3035_853)">
<path d="M116.094 88.8162H184.35C185.103 88.8162 185.798 89.2177 186.174 89.8694L220.234 148.911C220.609 149.562 220.609 150.364 220.234 151.015L186.174 210.06C185.798 210.712 185.103 211.114 184.35 211.114H116.094C115.346 211.114 114.653 210.716 114.276 210.069L79.8243 151.024C79.4418 150.369 79.4418 149.558 79.8243 148.902L114.276 89.8604C114.653 89.2138 115.345 88.8162 116.094 88.8162Z" stroke="#F4F4F4" stroke-width="27.3668" shape-rendering="crispEdges"/>
</g>
<path fill-rule="evenodd" clip-rule="evenodd" d="M183.292 193.438C180.753 197.832 176.064 200.539 170.988 200.539H129.012C123.937 200.539 119.247 197.832 116.708 193.438L95.6985 157.073C93.1573 152.675 93.1573 147.255 95.6985 142.856L116.708 106.492C119.247 102.098 123.937 99.3911 129.012 99.3911H170.988C176.064 99.3911 180.753 102.098 183.292 106.492L204.302 142.856C206.843 147.255 206.843 152.675 204.302 157.073L183.292 193.438ZM144.284 117.783C146.851 113.429 153.149 113.429 155.716 117.783L177.033 153.932C178.588 156.571 178.136 159.931 175.939 162.064L154.622 182.759C152.048 185.258 147.952 185.258 145.378 182.759L124.061 162.064C121.864 159.931 121.412 156.571 122.968 153.933L144.284 117.783Z" fill="url(#paint0_linear_3035_853)"/>
<path d="M181.549 103.041C178.977 100.725 175.604 99.9172 172.041 99.9172L130.064 100.444C124.989 100.444 120.299 103.15 117.76 107.545L96.751 142.856C94.2099 147.255 94.7362 152.149 97.2773 156.547L117.76 192.911C118.387 194.04 118.722 194.688 119.503 195.836C118.412 194.854 117.464 193.694 116.708 192.385L95.6985 156.021C93.1573 151.622 93.1573 146.202 95.6985 141.804L116.708 105.44C119.247 101.045 123.937 98.3384 129.012 98.3384H170.988C175.061 98.3384 178.885 100.081 181.549 103.041Z" fill="#E16117"/>
<defs>
<filter id="filter0_d_3035_853" x="65.854" y="75.1328" width="171.502" height="152.822" filterUnits="userSpaceOnUse" color-interpolation-filters="sRGB">
<feFlood flood-opacity="0" result="BackgroundImageFix"/>
<feColorMatrix in="SourceAlpha" type="matrix" values="0 0 0 0 0 0 0 0 0 0 0 0 0 0 0 0 0 0 127 0" result="hardAlpha"/>
<feOffset dx="3.15771" dy="3.15771"/>
<feComposite in2="hardAlpha" operator="out"/>
<feColorMatrix type="matrix" values="0 0 0 0 0.579167 0 0 0 0 0.579167 0 0 0 0 0.579167 0 0 0 0.25 0"/>
<feBlend mode="normal" in2="BackgroundImageFix" result="effect1_dropShadow_3035_853"/>
<feBlend mode="normal" in="SourceGraphic" in2="effect1_dropShadow_3035_853" result="shape"/>
</filter>
<linearGradient id="paint0_linear_3035_853" x1="186.708" y1="190.944" x2="149.35" y2="96.4789" gradientUnits="userSpaceOnUse">
<stop stop-color="#E37633"/>
<stop offset="1" stop-color="#FFC06B"/>
</linearGradient>
</defs>
</svg>
